<?xml version="1.0" encoding="UTF-8"?>
<svg width="280px" height="280px" viewBox="0 0 280 280" version="1.1" xmlns="http://www.w3.org/2000/svg" xmlns:xlink="http://www.w3.org/1999/xlink">
    <!-- Generator: Sketch 52.2 (67145) - http://www.bohemiancoding.com/sketch -->
    <title>403</title>
    <desc>Created with Sketch.</desc>
    <defs>
        <filter x="-28.6%" y="-71.4%" width="157.2%" height="242.7%" filterUnits="objectBoundingBox" id="filter-1">
            <feGaussianBlur stdDeviation="4" in="SourceGraphic"></feGaussianBlur>
        </filter>
        <filter x="-4.9%" y="-92.6%" width="109.8%" height="285.3%" filterUnits="objectBoundingBox" id="filter-2">
            <feGaussianBlur stdDeviation="4" in="SourceGraphic"></feGaussianBlur>
        </filter>
    </defs>
    <g id="页面" stroke="none" stroke-width="1" fill="none" fill-rule="evenodd">
        <g id="403" transform="translate(-687.000000, -371.000000)">
            <g transform="translate(687.000000, 361.000000)">
                <g id="禁行庄子" transform="translate(117.000000, 66.761566)" fill-rule="nonzero">
                    <g id="底座" transform="translate(0.000000, 32.882562)">
                        <polygon id="路径-2" fill="#EEF4FD" points="56.5731707 38.3737389 56.5731707 43.9150903 94 20.1779359 94 15.0409479"></polygon>
                        <polygon id="矩形" fill="#E2EDFC" points="38.8494059 0.423657835 94 15.1053556 56.735942 38.6617879 1.58534799 23.9800901"></polygon>
                        <polygon id="矩形" fill="#CCD6E5" points="2.13414634 23.5409253 56.5731707 38.327926 56.5731707 43.9826895 2.13414634 29.1956888"></polygon>
                        <path d="M47.1549555,26.3776265 C58.7428325,26.3776265 67.9146341,24.4171802 67.9146341,17.9701532 C67.9146341,11.5231262 58.5208038,9.56267985 46.9329268,9.56267985 C35.3450499,9.56267985 25.9512195,10.927985 25.9512195,17.9701532 C25.9512195,25.0123213 35.5670785,26.3776265 47.1549555,26.3776265 Z" id="椭圆形-copy" fill-opacity="0.9" fill="#788B9E" opacity="0.495186942" filter="url(#filter-1)"></path>
                    </g>
                    <g id="禁行桩" transform="translate(33.000000, 0.000000)">
                        <path d="M0.454292376,52.8828434 C4.72750196,55.4923832 10.1764207,56.797153 16.8010486,56.797153 C23.4226955,56.797153 28.8696912,55.4935572 33.1420355,52.8863654 L33.1420337,52.8863626 C33.5322455,52.6482364 33.7113032,52.1758181 33.5769595,51.738873 L17.9935323,1.05468198 C17.800794,0.427811689 17.2216823,1.62701088e-15 16.5658512,0 L16.5658512,0 C15.9111271,1.20270862e-16 15.3341091,0.429938145 15.1468414,1.0573092 L0.0172293509,51.7433194 C-0.112620773,52.1783342 0.0668432058,52.6462381 0.454292376,52.8828434 Z" id="路径-27-copy" fill="#CCD6E5"></path>
                        <path d="M10.5820894,16.3497746 L11.8893683,11.9702338 C13.5169391,12.3125607 15.2306156,12.4953737 17,12.4953737 C18.5111355,12.4953737 19.981638,12.3620309 21.3925715,12.1098592 L22.7394558,16.4905222 C20.9012872,16.8489563 18.9788467,17.0391459 17,17.0391459 C14.7762859,17.0391459 12.6238012,16.7989751 10.5820894,16.3497746 Z" id="合并形状" fill="#A9B9D1"></path>
                        <path d="M7.38994467,27.0438412 L8.66622921,22.7681353 C11.0683102,23.4692382 13.68926,23.8548043 16.4333333,23.8548043 C19.3418075,23.8548043 22.1119633,23.4216548 24.6297951,22.6387408 L26.034424,27.2072147 C23.2196664,27.9777351 20.1761726,28.3985765 17,28.3985765 C13.6060886,28.3985765 10.3636708,27.9180567 7.38994467,27.0438412 Z" id="合并形状" fill="#A9B9D1"></path>
                        <path d="M1.23531493,47.6627036 L2.53649969,43.3035681 C6.41211344,45.3574476 11.2223816,46.5736655 16.4333333,46.5736655 C21.8979285,46.5736655 26.9218841,45.236167 30.8893994,42.9977397 L32.3799616,47.8457069 C27.9505961,49.9156099 22.6697821,51.1174377 17,51.1174377 C11.1651348,51.1174377 5.74221808,49.8446055 1.23531493,47.6627036 Z" id="形状" fill="#A9B9D1"></path>
                        <path d="M5.58344169,33.0959224 C8.78843336,34.4446108 12.4902911,35.2142349 16.4333333,35.2142349 C20.5813083,35.2142349 24.4623769,34.3625321 27.7788841,32.8809695 L29.2241818,37.5817163 C25.5490253,38.9739553 21.3963156,39.7580071 17,39.7580071 C12.4127218,39.7580071 8.09067205,38.9043623 4.29962752,37.3968642 L5.58344169,33.0959224 Z" id="形状" fill="#A9B9D1"></path>
                    </g>
                </g>
                <g transform="translate(0.000000, 0.528630)">
                    <path d="M141.301587,238.149466 C209.232612,238.149466 263,236.639196 263,231.672598 C263,226.705999 207.931024,225.19573 140,225.19573 C72.0689758,225.19573 17,226.24752 17,231.672598 C17,237.097676 73.3705631,238.149466 141.301587,238.149466 Z" id="椭圆形" fill-opacity="0.8" fill="#AEB8C2" fill-rule="nonzero" opacity="0.495186942" filter="url(#filter-2)"></path>
                    <path d="M87.564,190.543488 C88.6440054,190.543488 89.5439964,190.902203 90.264,191.619644 C90.9840036,192.337085 91.344,193.198002 91.344,194.20242 L91.344,201.520285 C91.344,202.524703 90.9840036,203.385619 90.264,204.10306 C89.5439964,204.820502 88.6440054,205.179217 87.564,205.179217 L83.244,205.179217 L83.244,219.707331 C83.244,220.711749 82.8660038,221.590601 82.11,222.343915 C81.3539962,223.097228 80.472005,223.473879 79.464,223.473879 L71.364,223.473879 C70.355995,223.473879 69.4740038,223.097228 68.718,222.343915 C67.9619962,221.590601 67.584,220.711749 67.584,219.707331 L67.584,205.179217 L37.128,205.179217 C36.119995,205.179217 35.2380038,204.820502 34.482,204.10306 C33.7259962,203.385619 33.348,202.524703 33.348,201.520285 L33.348,193.556726 C33.348,192.839285 33.5639978,192.157726 33.996,191.512028 L64.128,146.205836 C64.8480036,145.05793 65.8919932,144.483986 67.26,144.483986 L79.464,144.483986 C80.472005,144.483986 81.3539962,144.860637 82.11,145.61395 C82.8660038,146.367264 83.244,147.246116 83.244,148.250534 L83.244,190.543488 L87.564,190.543488 Z M67.584,190.543488 L67.584,167.298505 L51.816,190.543488 L67.584,190.543488 Z M136.144,225.19573 C130.16797,225.19573 125.290019,223.958162 121.51,221.482989 C117.729981,219.007817 114.778011,215.815251 112.654,211.905196 C110.529989,207.995141 109.090004,203.654686 108.334,198.883701 C107.577996,194.112716 107.2,189.431482 107.2,184.839858 C107.2,180.248233 107.577996,175.566999 108.334,170.796014 C109.090004,166.02503 110.529989,161.684575 112.654,157.77452 C114.778011,153.864464 117.729981,150.671898 121.51,148.196726 C125.290019,145.721553 130.16797,144.483986 136.144,144.483986 C146.728053,144.699218 154.503975,149.147288 159.472,157.828327 C163.144018,164.428787 164.98,173.432541 164.98,184.839858 C164.98,189.431482 164.602004,194.112716 163.846,198.883701 C163.089996,203.654686 161.650011,207.995141 159.526,211.905196 C157.401989,215.815251 154.468019,219.007817 150.724,221.482989 C146.979981,223.958162 142.12003,225.19573 136.144,225.19573 Z M121.86,184.839858 C121.86,193.879618 123.047988,200.479979 125.424,204.641139 C127.296009,208.084857 130.535977,209.80669 135.144,209.80669 C136.296006,209.80669 137.519994,209.627333 138.816,209.268612 C140.112006,208.909891 141.353994,208.210397 142.542,207.170107 C143.730006,206.129817 144.791995,204.605277 145.728,202.596441 C146.664005,200.587606 147.311998,197.897241 147.672,194.525267 C148.104002,191.225037 148.32,187.996599 148.32,184.839858 C148.32,175.871841 147.168012,169.27148 144.864,165.038577 C142.84799,161.594858 139.608022,159.873025 135.144,159.873025 C130.535977,159.873025 127.296009,161.594858 125.424,165.038577 C123.047988,169.27148 121.86,175.871841 121.86,184.839858 Z M187.664,218.631174 C181.975972,214.03955 178.808003,208.515335 178.16,202.058363 C178.015999,200.982201 178.339996,200.01367 179.132,199.15274 C179.924004,198.363555 180.859995,197.968968 181.94,197.968968 L190.148,197.968968 C191.084005,197.968968 191.893997,198.25594 192.578,198.829893 C193.262003,199.403846 193.675999,200.157148 193.82,201.089822 C194.252002,203.31389 195.655988,205.286824 198.032,207.008683 C200.624013,208.874031 203.791981,209.80669 207.536,209.80669 C211.640021,209.80669 214.807989,208.802288 217.04,206.793452 C218.98401,205.143337 219.956,202.991045 219.956,200.336512 C219.956,197.753724 218.94801,195.493818 216.932,193.556726 C214.627988,191.476146 211.748017,190.435872 208.292,190.435872 L199.976,190.435872 C198.967995,190.435872 198.104004,190.059221 197.384,189.305907 C196.663996,188.552594 196.304,187.673742 196.304,186.669324 L196.304,179.243843 C196.304,178.239426 196.663996,177.360573 197.384,176.60726 C198.104004,175.853946 198.967995,175.477295 199.976,175.477295 L207.32,175.477295 C210.272015,175.477295 212.79199,174.65225 214.88,173.002135 C216.680009,171.638997 217.58,169.84542 217.58,167.621352 C217.58,165.32554 216.824008,163.460221 215.312,162.025338 C213.655992,160.590455 210.992018,159.873025 207.32,159.873025 C203.575981,159.873025 200.73201,160.626327 198.788,162.132954 C196.915991,163.496092 195.800002,165.110311 195.44,166.975658 C195.295999,167.836588 194.882003,168.554018 194.198,169.127972 C193.513997,169.701925 192.704005,169.988897 191.768,169.988897 L183.884,169.988897 C182.803995,169.988897 181.868004,169.59431 181.076,168.805125 C180.283996,167.944195 179.959999,166.975664 180.104,165.899502 C180.752003,160.088227 183.379977,155.173828 187.988,151.156157 C193.100026,146.70802 199.399963,144.483986 206.888,144.483986 C214.736039,144.483986 221.071976,146.600406 225.896,150.83331 C230.792024,154.922725 233.24,160.375197 233.24,167.19089 C233.24,171.423793 231.764015,175.441404 228.812,179.243843 C228.379998,179.817796 227.948002,180.355869 227.516,180.858078 C227.083998,181.360287 226.652002,181.826617 226.22,182.257082 C228.23601,183.62022 229.963993,185.306182 231.404,187.315018 C234.212014,191.117457 235.616,195.206811 235.616,199.583203 C235.616,203.672618 234.860008,207.259771 233.348,210.344769 C231.835992,213.50151 229.784013,216.191875 227.192,218.415943 C221.863973,222.935823 215.312039,225.19573 207.536,225.19573 C199.759961,225.19573 193.136027,223.007566 187.664,218.631174 Z" fill="#AEB8C1"></path>
                </g>
                <g id="柱子" transform="translate(62.000000, 26.903915)" fill-rule="nonzero">
                    <g>
                        <polygon id="矩形" fill="#CCD6E5" points="25 4.52461216 34 6.70613578 34 111.275926 25 108.519266"></polygon>
                        <polygon id="矩形-copy" fill="#EEF4FD" points="40 1.99288256 34 6.51772845 34 111.098263 40 105.622776"></polygon>
                        <polygon id="矩形" fill="#A9B9D1" points="30.9018868 0 39.9987183 2.14907983 33.9951172 6.76928103 25 4.63189502"></polygon>
                    </g>
                    <g id="禁止符号" transform="translate(7.000000, 15.943060)">
                        <polygon id="矩形" fill="#CCD6E5" points="0 3.98576512 45 13.8042149 45 55.6547487 0 45.8362989"></polygon>
                        <path d="M10,27.0929097 C10,33.6967416 15.372583,40.222437 22,41.6684584 C24.2825505,42.166483 26.4162546,41.9970117 28.2328881,41.2909653 L12.9828181,19.8539381 C11.1259616,21.5542363 10,24.0697142 10,27.0929097 Z M30.5814138,39.9417261 C32.6964242,38.247437 34,35.5823303 34,32.3294163 C34,25.7255844 28.627417,19.199889 22,17.7538676 C19.4878856,17.205755 17.1560632,17.4661547 15.2287895,18.3605383 L30.5814138,39.9417261 Z M22,44.6577822 C13.7157288,42.8502555 7,34.6931363 7,26.4383464 C7,18.1835566 13.7157288,12.9570171 22,14.7645438 C30.2842712,16.5720705 37,24.7291897 37,32.9839796 C37,41.2387694 30.2842712,46.4653089 22,44.6577822 Z" id="合并形状" fill="#A9B9D1"></path>
                        <polygon id="矩形-copy-2" fill="#A9B9D1" points="5.3215332 0.198023243 49.5859375 10.01494 45 13.9501779 0 3.98576512"></polygon>
                        <polygon id="矩形-copy-4" fill="#EEF4FD" points="49.5859375 9.96441281 45 13.5725593 45 55.6547487 49.5859375 49.8220641"></polygon>
                    </g>
                </g>
            </g>
        </g>
    </g>
</svg>