<?xml version="1.0" encoding="UTF-8"?>
<svg width="280px" height="281px" viewBox="0 0 280 281" version="1.1" xmlns="http://www.w3.org/2000/svg" xmlns:xlink="http://www.w3.org/1999/xlink">
    <!-- Generator: Sketch 52.2 (67145) - http://www.bohemiancoding.com/sketch -->
    <title>飞船</title>
    <desc>Created with Sketch.</desc>
    <defs>
        <linearGradient x1="58.1631755%" y1="87.2936991%" x2="66.2747189%" y2="7.4699635%" id="linearGradient-1">
            <stop stop-color="#ECF3FD" stop-opacity="0" offset="0%"></stop>
            <stop stop-color="#D4E3FA" offset="100%"></stop>
        </linearGradient>
        <linearGradient x1="61.2147177%" y1="55.15663%" x2="72.4073841%" y2="0%" id="linearGradient-2">
            <stop stop-color="#F8FBFF" stop-opacity="0" offset="0%"></stop>
            <stop stop-color="#F9FAFC" stop-opacity="0.6" offset="100%"></stop>
        </linearGradient>
        <radialGradient cx="50%" cy="9.94813736%" fx="50%" fy="9.94813736%" r="118.819923%" gradientTransform="translate(0.500000,0.099481),scale(0.316679,1.000000),rotate(31.630189),translate(-0.500000,-0.099481)" id="radialGradient-3">
            <stop stop-color="#F2F7FD" offset="0%"></stop>
            <stop stop-color="#E0EBFB" offset="100%"></stop>
        </radialGradient>
        <filter x="-4.9%" y="-92.3%" width="109.8%" height="284.6%" filterUnits="objectBoundingBox" id="filter-4">
            <feGaussianBlur stdDeviation="4" in="SourceGraphic"></feGaussianBlur>
        </filter>
        <filter x="-35.3%" y="-54.5%" width="170.6%" height="209.1%" filterUnits="objectBoundingBox" id="filter-5">
            <feGaussianBlur stdDeviation="2" in="SourceGraphic"></feGaussianBlur>
        </filter>
    </defs>
    <g id="页面" stroke="none" stroke-width="1" fill="none" fill-rule="evenodd">
        <g id="404" transform="translate(-688.000000, -359.000000)">
            <g id="分组-3" transform="translate(688.000000, 359.530518)">
                <g id="404">
                    <g id="飞船" transform="translate(17.000000, 18.000000)">
                        <g id="分组-8" transform="translate(15.000000, 0.000000)">
                            <g id="分组-7">
                                <g id="分组-5" transform="translate(50.000000, 0.000000)" fill-rule="nonzero">
                                    <g id="椭圆形-2" transform="translate(47.000000, 0.000000)" fill="#EDF0FA">
                                        <circle id="椭圆形" cx="40.5" cy="40.5" r="40.5"></circle>
                                    </g>
                                    <path d="M86.6017016,63.6743037 C132.441336,63.6743037 170.389689,63.5339009 170.389689,52.4882059 C170.389689,41.4425109 132.441336,23.6743037 86.6017016,23.6743037 C40.7620673,23.6743037 7.09312012,39.3031998 5.41944492,51.1396977 C3.74576971,62.9761956 40.7620673,63.6743037 86.6017016,63.6743037 Z" id="椭圆形-copy-4" fill="#F2F4FC" transform="translate(87.877264, 43.674304) rotate(15.000000) translate(-87.877264, -43.674304) "></path>
                                    <ellipse id="椭圆形" fill="#CCD6E5" transform="translate(85.348224, 52.800497) rotate(15.000000) translate(-85.348224, -52.800497) " cx="85.3482245" cy="52.8004973" rx="83" ry="20"></ellipse>
                                    <path d="M79.8581228,82.3673813 C89.5053892,82.3673813 99.8015291,83.8205865 107.942265,77.9480865 C111.275812,75.5433587 113.392917,73.3817603 115.752172,67.5732189 C114.313249,62.2030864 101.819252,56.8945953 80.321749,56.3612485 C58.8242459,55.8279017 42.6526521,63.0551251 43.4228902,65.9296927 C44.1931282,68.8042604 48.3208111,74.6664565 51.3487191,76.9929827 C60.3397396,83.9013317 70.2108564,82.3673813 79.8581228,82.3673813 Z" id="椭圆形" fill="#A9B9D1" transform="translate(79.574330, 69.429953) rotate(15.000000) translate(-79.574330, -69.429953) "></path>
                                </g>
                                <path d="M5.47638889,208.611328 L191,208.611328 L155.685547,80.6288883 C145.700321,74.2643375 137.471805,70.3032796 131,68.7457146 C124.528195,67.1881496 114.62284,66.9052169 101.283936,67.8969164 L65.1810231,122.13767 L5.47638889,208.611328 Z" id="路径-18" fill="url(#linearGradient-1)" fill-rule="nonzero" opacity="0.9"></path>
                                <polygon id="路径-21" fill="url(#linearGradient-2)" fill-rule="nonzero" opacity="0.9" points="112.019531 73.8385033 38 208.611328 162 208.611328 142.785174 77.8494636"></polygon>
                                <path d="M54.2197393,175.065395 C55.2998192,175.065395 56.1998723,175.424156 56.9199255,176.141689 C57.6399788,176.859222 58,177.720249 58,178.724796 L58,186.043597 C58,187.048143 57.6399788,187.90917 56.9199255,188.626703 C56.1998723,189.344236 55.2998192,189.702997 54.2197393,189.702997 L49.8994413,189.702997 L49.8994413,204.23297 C49.8994413,205.237516 49.5214191,206.116481 48.7653631,206.869891 C48.0093072,207.623301 47.1272552,208 46.1191806,208 L38.018622,208 C37.0105474,208 36.1284954,207.623301 35.3724395,206.869891 C34.6163836,206.116481 34.2383613,205.237516 34.2383613,204.23297 L34.2383613,189.702997 L3.78026071,189.702997 C2.77218615,189.702997 1.89013413,189.344236 1.13407821,188.626703 C0.378022291,187.90917 0,187.048143 0,186.043597 L0,178.079019 C0,177.361486 0.216012737,176.67984 0.648044693,176.03406 L30.7821229,130.722071 C31.5021762,129.574018 32.5462377,129 33.9143389,129 L46.1191806,129 C47.1272552,129 48.0093072,129.376699 48.7653631,130.130109 C49.5214191,130.883519 49.8994413,131.762484 49.8994413,132.76703 L49.8994413,175.065395 L54.2197393,175.065395 Z M34.3042493,175.224 L34.3042493,151.896 L18.5048159,175.224 L34.3042493,175.224 Z M103.304673,210 C97.2541754,210 92.3154397,208.758012 88.4883178,206.274 C84.6611958,203.789988 81.6724407,200.58602 79.5219626,196.662 C77.3714846,192.73798 75.9135552,188.382024 75.1481308,183.594 C74.3827065,178.805976 74,174.108023 74,169.5 C74,164.891977 74.3827065,160.194024 75.1481308,155.406 C75.9135552,150.617976 77.3714846,146.26202 79.5219626,142.338 C81.6724407,138.41398 84.6611958,135.210012 88.4883178,132.726 C92.3154397,130.241988 97.2541754,129 103.304673,129 C114.020614,129.216001 120.393433,133.679956 125.423364,142.392 C129.14114,149.016033 131,158.051943 131,169.5 C131,174.108023 131,178.263794 130.449951,183.594 C129.899902,188.924206 128.69479,193.25164 126.544312,197.175659 C124.393833,201.099679 121.857028,203.789988 118.066355,206.274 C114.275682,208.758012 109.35517,210 103.304673,210 Z M89,169.5 C89,178.572045 90.1346165,184.89008 92.5032552,189.066101 C94.3694555,192.522118 97.9062763,195 102.5,195 C107.093724,195 110.310582,193.212943 112.517919,189.066101 C115.349985,183.745605 116,178.499759 116,169.5 C116,160.500241 114.572662,153.876021 112.2758,149.628 C110.266046,146.171983 106.95017,144 102.5,144 C97.9062763,144 94.7623254,146.171983 92.8961251,149.628 C90.5274863,153.876021 89,160.499955 89,169.5 Z M199.219739,175.065395 C200.299819,175.065395 201.199872,175.424156 201.919926,176.141689 C202.639979,176.859222 203,177.720249 203,178.724796 L203,186.043597 C203,187.048143 202.639979,187.90917 201.919926,188.626703 C201.199872,189.344236 200.299819,189.702997 199.219739,189.702997 L194.899441,189.702997 L194.899441,204.23297 C194.899441,205.237516 194.521419,206.116481 193.765363,206.869891 C193.009307,207.623301 192.127255,208 191.119181,208 L183.018622,208 C182.010547,208 181.128495,207.623301 180.372439,206.869891 C179.616384,206.116481 179.238361,205.237516 179.238361,204.23297 L179.238361,189.702997 L148.780261,189.702997 C147.772186,189.702997 146.890134,189.344236 146.134078,188.626703 C145.378022,187.90917 145,187.048143 145,186.043597 L145,178.079019 C145,177.361486 145.216013,176.67984 145.648045,176.03406 L175.782123,130.722071 C176.502176,129.574018 177.546238,129 178.914339,129 L191.119181,129 C192.127255,129 193.009307,129.376699 193.765363,130.130109 C194.521419,130.883519 194.899441,131.762484 194.899441,132.76703 L194.899441,175.065395 L199.219739,175.065395 Z M179,175 L179,152 L163,175 L179,175 Z" id="404" fill="#AEB8C2"></path>
                                <path d="M155.65958,124.390496 L162,125.568529 L155.59821,126.939809 L154.472243,133 L153.163186,126.8887 L147,125.568529 L153.093557,124.436362 L154.472243,118 L155.65958,124.390496 Z" id="合并形状" fill="#FFFFFF" fill-rule="nonzero"></path>
                                <path d="M81.8659275,128.134073 L87,128.928987 L81.8691913,129.844847 L81.0710134,135 L80.1514653,129.848535 L75,128.928987 L80.1551526,128.130809 L81.0710134,123 L81.8659275,128.134073 Z" id="合并形状-copy" fill="#FFFFFF" fill-rule="nonzero"></path>
                                <path d="M106.788728,104.211272 L114,105.39348 L106.794192,106.755395 L105.60652,114 L104.238438,106.761562 L97,105.39348 L104.244605,104.205808 L105.60652,97 L106.788728,104.211272 Z" id="合并形状-copy-3" fill="#FFFFFF" fill-rule="nonzero"></path>
                                <path d="M88.9414183,123.058582 L92,123.464493 L88.9426316,123.932277 L88.5355067,127 L88.0663494,123.933651 L85,123.464493 L88.0677235,123.057368 L88.5355067,120 L88.9414183,123.058582 Z" id="合并形状-copy-2" fill="#FFFFFF" fill-rule="nonzero"></path>
                            </g>
                            <path d="M56,29.480957 C57.2432245,27.4205983 58.5369256,25.8872324 59.8811035,24.8808594 C61.2252814,23.8744864 63.3412482,22.8786368 66.2290039,21.8933105 C71.0567259,21.2680898 74.6938515,20.9703196 77.1403809,21 C97.9655407,21.2526432 119.846855,25.0950352 142.785174,31 C169.765667,37.9455332 191.11706,46.9455332 206.839355,58 C209.532152,60.2158972 211.314379,62.0832475 212.186035,63.6020508 C212.635118,64.3845477 213.331419,65.4644396 213.907716,66.8408203 C214.269234,67.7042425 214.806628,69.2621445 215.519897,71.5145264 C214.121867,69.2847087 212.918132,67.7798665 211.908691,67 C190.902802,50.771409 163.51794,42.3622455 138.928223,36 C119.493592,30.971561 92.9316406,27.1072658 78.7126465,26.7253418 C64.4936523,26.3434178 64.185791,26.7253418 60.4763889,27.3913574 C59.394661,27.5855795 57.9025313,28.2821127 56,29.480957 Z" id="路径-23" fill="url(#radialGradient-3)" fill-rule="nonzero"></path>
                            <circle id="椭圆形" fill="#A9B9D1" fill-rule="nonzero" cx="72" cy="24" r="2"></circle>
                            <circle id="椭圆形-copy-5" fill="#A9B9D1" fill-rule="nonzero" cx="103" cy="26" r="2"></circle>
                            <circle id="椭圆形-copy-6" fill="#A9B9D1" fill-rule="nonzero" cx="138" cy="33" r="2"></circle>
                            <circle id="椭圆形-copy-7" fill="#A9B9D1" fill-rule="nonzero" cx="171" cy="43" r="2"></circle>
                            <circle id="椭圆形-copy-8" fill="#A9B9D1" fill-rule="nonzero" cx="201" cy="57" r="2"></circle>
                        </g>
                        <path d="M124.301587,222 C192.232612,222 246,220.484336 246,215.5 C246,210.515664 190.931024,209 123,209 C55.0689758,209 0,210.055547 0,215.5 C6.30851096e-15,220.944453 56.3705631,222 124.301587,222 Z" id="椭圆形" fill-opacity="0.8" fill="#AEB8C2" fill-rule="nonzero" opacity="0.495186942" filter="url(#filter-4)"></path>
                        <path d="M143.738281,5 C142.170387,5.30450598 140.23012,6.45163462 137.91748,8.44138592 C135.604841,10.4311372 133.670856,12.6173419 132.115524,15 L139.86377,16 C140.286848,14.4716317 141.332258,12.8049651 143,11 C144.667742,9.19503495 146.702247,7.52836828 149.103516,6 L143.738281,5 Z" id="路径-25" fill="#FFFFFF" fill-rule="nonzero" filter="url(#filter-5)"></path>
                        <path d="M175.13501,7 C179.34904,12.749349 181.77889,18.4460449 182.424561,24.0900879 C182.652588,28.40271 182.652588,31.3543701 182.424561,32.9450684 C184.294283,33.772741 186.105562,34.6176303 187.858398,35.4797363 C189.611234,36.3418423 191.325102,37.2026415 193,38.0621338 C193.339844,33.2514805 192.339844,28.2307692 190,23 C188.585399,19.8376311 186.128122,16.0834983 182.801815,12.8461539 C181.351398,11.4345277 178.795796,9.48580971 175.13501,7 Z" id="路径-22" fill="#CCD6E5" fill-rule="nonzero"></path>
                        <ellipse id="椭圆形" fill="#F0F6FE" fill-rule="nonzero" transform="translate(143.498851, 76.080735) rotate(15.000000) translate(-143.498851, -76.080735) " cx="143.498851" cy="76.0807353" rx="29" ry="8.5"></ellipse>
                    </g>
                </g>
            </g>
        </g>
    </g>
</svg>